# xmcd
#
# Track frame offsets:
# 150
# 11907
# 27705
# 43272
# 55610
# 66610
# 77622
# 88875
# 100837
# 114067
# 125175
# 135762
# 148285
# 162080
#
# Disc length: 2349 seconds
#
#
# Revision: 1
# Processed by: cddbd v1.5.2PL0 Copyright (c) Steve Scherf et al.
# Submitted via: FreeRIP 2.96 
#
DISCID=c5092b0e
DTITLE=Teodoro and Sampaio - As 14 Mais
DYEAR=2002
DGENRE=Country
TTITLE0=Cantaram Minha Vizinha (1)
TTITLE1=Cidade Grande (2)
TTITLE2=Cheirinho de Mulher (3)
TTITLE3=Velho Galã (4)
TTITLE4=O Chorão (5)
TTITLE5=Agarradinho (6)
TTITLE6=Garanhão da Madrugada (7)
TTITLE7=Espora do Amor (8)
TTITLE8=O Machão Chorou (9)
TTITLE9=O Gavião (10)
TTITLE10=Conta Pra Ela (11)
TTITLE11=Tô Doido pra Encontrar com Ela (12)
TTITLE12=Cravo e Canela (13)
TTITLE13=Sertanejão (14)
EXTD=
EXTT0=
EXTT1=
EXTT2=
EXTT3=
EXTT4=
EXTT5=
EXTT6=
EXTT7=
EXTT8=
EXTT9=
EXTT10=
EXTT11=
EXTT12=
EXTT13=
PLAYORDER=
